<?xml version="1.0" standalone="no"?>
<!DOCTYPE svg PUBLIC "-//W3C//DTD SVG 20010904//EN"
 "http://www.w3.org/TR/2001/REC-SVG-20010904/DTD/svg10.dtd">
<svg version="1.0" xmlns="http://www.w3.org/2000/svg"
 width="200.000000pt" height="200.000000pt" viewBox="0 0 200.000000 200.000000"
 preserveAspectRatio="xMidYMid meet">

<g transform="translate(0.000000,200.000000) scale(0.100000,-0.100000)"
fill="#000000" stroke="none">
<path d="M910 1611 c-78 -25 -136 -78 -172 -156 -19 -41 -23 -67 -23 -145 1
-83 4 -103 29 -157 31 -69 104 -145 161 -169 44 -18 146 -18 190 0 57 24 130
100 161 169 25 54 28 74 29 157 0 78 -4 104 -23 145 -28 60 -73 110 -127 138
-44 22 -179 33 -225 18z m190 -93 c96 -49 135 -178 93 -307 -19 -61 -74 -128
-120 -147 -43 -18 -117 -18 -152 1 -72 37 -131 147 -131 244 0 142 81 231 210
231 38 0 70 -7 100 -22z"/>
<path d="M882 870 c-246 -35 -388 -166 -400 -371 -4 -71 -3 -78 18 -89 37 -20
56 9 62 89 6 85 45 162 105 207 157 120 496 120 660 2 71 -51 106 -122 111
-224 5 -89 15 -108 54 -102 22 3 23 6 23 98 0 88 -3 101 -33 162 -71 145 -218
221 -447 232 -49 3 -119 1 -153 -4z"/>
</g>
</svg>
